<svg xmlns="http://www.w3.org/2000/svg" viewBox="0 0 1365 768" role="img" aria-labelledby="title desc">
  <title id="title">Average rating by Day</title>
  <desc id="desc">Line chart showing YMCA average rating by day, with a mid-month peak and a late-month drop.</desc>
  <rect width="1365" height="768" fill="#fff"/>
  <text x="30" y="18" fill="#3f3f3f" font-family="Arial, sans-serif" font-size="18" font-weight="700">Average of rating by Day</text>
  <g stroke="#e2e2e2" stroke-dasharray="2 5">
    <line x1="88" y1="33" x2="88" y2="704"/><line x1="260" y1="33" x2="260" y2="704"/>
    <line x1="432" y1="33" x2="432" y2="704"/><line x1="604" y1="33" x2="604" y2="704"/>
    <line x1="776" y1="33" x2="776" y2="704"/><line x1="948" y1="33" x2="948" y2="704"/>
    <line x1="1120" y1="33" x2="1120" y2="704"/><line x1="1292" y1="33" x2="1292" y2="704"/>
    <line x1="88" y1="164" x2="1292" y2="164"/><line x1="88" y1="327" x2="1292" y2="327"/>
    <line x1="88" y1="489" x2="1292" y2="489"/><line x1="88" y1="652" x2="1292" y2="652"/>
  </g>
  <g font-family="Arial, sans-serif" font-size="13" fill="#777">
    <text x="82" y="700">0</text><text x="253" y="700">5</text><text x="425" y="700">10</text><text x="597" y="700">15</text>
    <text x="769" y="700">20</text><text x="941" y="700">25</text><text x="1113" y="700">30</text><text x="1285" y="700">35</text>
    <text x="64" y="168">4.0</text><text x="64" y="331">3.5</text><text x="64" y="493">3.0</text><text x="64" y="656">2.5</text>
  </g>
  <text x="44" y="385" transform="rotate(-90 44 385)" fill="#444" font-family="Arial, sans-serif" font-size="14" font-weight="700">Average of rating</text>
  <text x="690" y="727" fill="#444" font-family="Arial, sans-serif" font-size="14" font-weight="700">Day</text>
  <path fill="none" stroke="#1e90ff" stroke-width="3" stroke-linecap="round" stroke-linejoin="round"
    d="M122 274 L157 265 L191 307 L226 141 L260 320 L294 295 L329 313 L363 338 L398 343 L432 313 L466 314 L501 361 L535 334 L570 324 L604 350 L638 288 L673 318 L707 278 L742 177 L776 136 L810 90 L844 295 L879 320 L913 335 L948 307 L982 303 L1016 378 L1051 333 L1085 655 L1120 675 L1154 634"/>
  <circle cx="982" cy="303" r="5" fill="#1e90ff"/>
</svg>
